# xmcd CD database file
#
# Track frame offsets:
#	150
#	9407
#	17698
#	29299
#	37218
#	46441
#	57168
#	68908
#	77141
#	87352
#	96191
#	106120
#	111988
#	121752
#	132619
#	141017
#	148702
#	158886
#	166853
#	178743
#	186557
#	192460
#	202529
#	211069
#	221262
#
# Disc length: 3070 seconds
#
# Revision: 0
# Processed by: cddbd v1.5.2PL0 Copyright (c) Steve Scherf et al.
# Submitted via: CDex 1.51
#
DISCID=610bfc19
DTITLE=Johnny Cash  - Country Boy
DYEAR=2010
DGENRE=Country
TTITLE0=I Got Stripes
TTITLE1=Guess Things Happen That Way
TTITLE2=I Still Miss Someone
TTITLE3=Five Feet And Rising
TTITLE4=Luther Played The Boogie
TTITLE5=You Win Again
TTITLE6=Thanks A Lot
TTITLE7=You Dreamer You
TTITLE8=Frankie's Man. Johnny
TTITLE9=Katy Too
TTITLE10=Goodbye Little Darlin`
TTITLE11=You Tell Me
TTITLE12=Rock Island Line
TTITLE13=I Heard That Lonesome Whistle
TTITLE14=Country Boy
TTITLE15=If the Good Lord´s Willing
TTITLE16=I Was There When It Happened
TTITLE17=Wreck of the Old to 97
TTITLE18=Doin´ My Time
TTITLE19=I Can´t Help It (If I´m Still in Love With You)
TTITLE20=You Tell Me
TTITLE21=I Could Never Be Ashamed of You
TTITLE22=That´s All Over
TTITLE23=The Troubadour
TTITLE24=One More Ride
EXTD=YEAR: 2010
EXTT0=
EXTT1=
EXTT2=
EXTT3=
EXTT4=
EXTT5=
EXTT6=
EXTT7=
EXTT8=
EXTT9=
EXTT10=
EXTT11=
EXTT12=
EXTT13=
EXTT14=
EXTT15=
EXTT16=
EXTT17=
EXTT18=
EXTT19=
EXTT20=
EXTT21=
EXTT22=
EXTT23=
EXTT24=
PLAYORDER=
